<svg width="23" height="24" viewBox="0 0 23 24" fill="none" xmlns="http://www.w3.org/2000/svg">
<path fill-rule="evenodd" clip-rule="evenodd" d="M20.0857 13.9032V9.6C20.0857 5.7396 17.4637 2.4876 13.9117 1.5096C13.5601 0.624 12.7009 0 11.6857 0C10.6705 0 9.81134 0.624 9.45974 1.5096C5.90774 2.4888 3.28574 5.7396 3.28574 9.6V13.9032L1.23734 15.9516C1.01174 16.176 0.885742 16.4808 0.885742 16.8V19.2C0.885742 19.8636 1.42214 20.4 2.08574 20.4H21.2857C21.9493 20.4 22.4857 19.8636 22.4857 19.2V16.8C22.4857 16.4808 22.3597 16.176 22.1341 15.9516L20.0857 13.9032ZM20.0858 18H3.28583V17.2968L5.33423 15.2484C5.55983 15.024 5.68583 14.7192 5.68583 14.4V9.60002C5.68583 6.29162 8.37743 3.60002 11.6858 3.60002C14.9942 3.60002 17.6858 6.29162 17.6858 9.60002V14.4C17.6858 14.7192 17.8118 15.024 18.0374 15.2484L20.0858 17.2968V18ZM11.6858 24C13.259 24 14.5742 22.9992 15.0674 21.6H8.30422C8.79742 22.9992 10.1126 24 11.6858 24Z" fill="#435971"/>
<path fill-rule="evenodd" clip-rule="evenodd" d="M20.0857 13.9032V9.6C20.0857 5.7396 17.4637 2.4876 13.9117 1.5096C13.5601 0.624 12.7009 0 11.6857 0C10.6705 0 9.81134 0.624 9.45974 1.5096C5.90774 2.4888 3.28574 5.7396 3.28574 9.6V13.9032L1.23734 15.9516C1.01174 16.176 0.885742 16.4808 0.885742 16.8V19.2C0.885742 19.8636 1.42214 20.4 2.08574 20.4H21.2857C21.9493 20.4 22.4857 19.8636 22.4857 19.2V16.8C22.4857 16.4808 22.3597 16.176 22.1341 15.9516L20.0857 13.9032ZM20.0858 18H3.28583V17.2968L5.33423 15.2484C5.55983 15.024 5.68583 14.7192 5.68583 14.4V9.60002C5.68583 6.29162 8.37743 3.60002 11.6858 3.60002C14.9942 3.60002 17.6858 6.29162 17.6858 9.60002V14.4C17.6858 14.7192 17.8118 15.024 18.0374 15.2484L20.0858 17.2968V18ZM11.6858 24C13.259 24 14.5742 22.9992 15.0674 21.6H8.30422C8.79742 22.9992 10.1126 24 11.6858 24Z" fill="white" fill-opacity="0.2"/>
</svg>
